<?xml version="1.0" encoding="utf-8"?>
<!-- Generator: Adobe Illustrator 27.6.1, SVG Export Plug-In . SVG Version: 6.00 Build 0)  -->
<svg version="1.1" id="Layer_1" xmlns="http://www.w3.org/2000/svg" xmlns:xlink="http://www.w3.org/1999/xlink" x="0px" y="0px"
	 viewBox="0 0 1000 1000" style="enable-background:new 0 0 1000 1000;" xml:space="preserve">
<style type="text/css">
	.st0{fill:#1F2937;}
</style>
<g>
	<path d="M196.3,563.5c-3.5,0-7.2-0.1-11.3-0.3c-4-0.2-8.1-0.5-12.1-0.9c-4-0.4-7.8-0.9-11.3-1.6c-3.5-0.6-6.4-1.4-8.8-2.2v-18.2
		h49.7c2.9,0,5.3-0.2,7.2-0.7c1.9-0.5,3.3-1.4,4.2-2.7c0.9-1.3,1.4-3.2,1.4-5.7v-3.6c0-2.8-0.9-4.9-2.7-6.5c-1.8-1.5-5.2-2.3-10-2.3
		H185c-6.4,0-12.2-1-17.3-2.9c-5.2-1.9-9.2-5.2-12.2-9.6c-3-4.5-4.5-10.4-4.5-18v-6.5c0-7.1,1.4-13.1,4.2-18
		c2.8-4.9,7.4-8.6,14-11.1c6.5-2.5,15.5-3.8,27-3.8c4.6,0,9.5,0.2,14.7,0.7c5.2,0.5,10.2,1.1,14.8,1.9c4.7,0.8,8.4,1.6,11.2,2.6
		v18.2h-47c-4,0-7.1,0.7-9.2,2c-2.1,1.3-3.1,3.8-3.1,7.4v3.3c0,2.5,0.5,4.4,1.5,5.5c1,1.2,2.5,2,4.5,2.5c2,0.5,4.6,0.7,7.6,0.7h18
		c11.4,0,19.7,2.6,25,7.8c5.2,5.2,7.8,12.4,7.8,21.6v10c0,7.5-1.8,13.5-5.3,17.9s-8.7,7.5-15.5,9.4
		C214.3,562.6,206,563.5,196.3,563.5z"/>
	<path d="M258.9,562.3V450.1h25.5l5.4,11.5c4.2-3.5,9.4-6.6,15.8-9.3c6.3-2.7,12.8-4.1,19.5-4.1c9.2,0,16.3,1.8,21.3,5.4
		c5,3.6,8.5,8.5,10.6,14.5c2,6.1,3,12.8,3,20.2v74h-30.9v-70c0-3.6-0.7-6.6-2-9c-1.3-2.4-3.2-4.2-5.5-5.4c-2.4-1.3-5.2-1.9-8.6-1.9
		c-2.9,0-5.7,0.3-8.5,1c-2.7,0.7-5.3,1.7-7.7,2.9c-2.4,1.3-4.8,2.7-7,4.4v77.9H258.9z"/>
	<path d="M405,563.5c-8.5,0-15.4-2.5-20.7-7.5c-5.3-5-7.9-12-7.9-20.9v-10c0-8.5,3-15.5,9-21c6-5.5,15.3-8.3,28-8.3H442v-7.7
		c0-3.5-0.6-6.4-1.9-8.7c-1.3-2.3-3.6-4-7-5c-3.4-1-8.6-1.6-15.6-1.6h-33.6v-18c5.4-1.7,11.7-3.1,18.9-4.4c7.2-1.3,15.8-1.9,26-1.9
		c9.3,0,17.3,1.1,23.9,3.3c6.6,2.2,11.6,6.1,15,11.5c3.4,5.4,5.1,13,5.1,22.6v76.3h-24.4l-5-11.9c-1,1.1-2.6,2.4-5,3.8
		c-2.4,1.4-5.3,2.8-8.7,4.3c-3.4,1.5-7.2,2.7-11.5,3.7C414,563,409.6,563.5,405,563.5z M420.6,542c1.4,0,3-0.2,4.7-0.5
		c1.7-0.3,3.6-0.8,5.4-1.3c1.9-0.5,3.6-1,5.2-1.5c1.6-0.5,2.9-0.9,4-1.4c1-0.4,1.7-0.7,2-0.8v-26.1l-18.8,1.3
		c-5.4,0.4-9.4,1.8-12,4.2c-2.6,2.4-3.9,5.6-3.9,9.6v4.6c0,2.8,0.6,5.1,1.8,6.9c1.2,1.8,2.8,3.1,4.8,3.9
		C415.9,541.6,418.1,542,420.6,542z"/>
	<path d="M494,611.8V450.1h25.9l5,10.7c2.6-2.1,5.6-4.1,8.8-6c3.2-1.9,6.7-3.4,10.4-4.6c3.8-1.2,7.7-1.8,11.9-1.8
		c6.8,0,12.8,1.3,17.9,4c5.1,2.6,9.2,6.5,12.4,11.5c3.2,5,5.6,11.1,7.1,18.3c1.5,7.2,2.3,15.2,2.3,24.1c0,12-1.2,22.3-3.6,30.9
		c-2.4,8.6-6.4,15.2-12.2,19.7c-5.8,4.5-13.8,6.8-23.9,6.8c-5.3,0-10.7-0.6-16.2-1.9c-5.5-1.3-10.5-3.1-14.9-5.4v55.4H494z
		 M546,538.2c3.2,0,6.3-0.9,9.2-2.6c2.9-1.7,5.3-4.9,7-9.5c1.7-4.6,2.6-11.2,2.6-19.8c0-8.4-0.8-14.9-2.4-19.7
		c-1.6-4.8-3.8-8.2-6.6-10.2c-2.8-2-6.1-3-9.8-3c-4.3,0-8.3,0.7-11.9,2.1c-3.6,1.4-6.7,2.8-9.2,4.2v53.3c2.8,1.7,6.1,3,9.8,4
		C538.5,537.7,542.2,538.2,546,538.2z"/>
	<path d="M656.7,562.3c-8.6,0-15.6-1.3-21-3.8c-5.4-2.5-9.2-6.7-11.6-12.5c-2.4-5.8-3.4-13.7-3.1-23.6l1-47.4h-17.6v-19.8l18.6-5
		l4.2-31.3h24.4v31.3H678v24.9h-26.3v47.2c0,3.1,0.3,5.6,0.8,7.5c0.6,2,1.4,3.5,2.4,4.7c1,1.2,2.3,2.1,3.7,2.6
		c1.4,0.6,2.8,0.9,4.2,1l14.2,1.3v23H656.7z"/>
	<path d="M725.1,563.5c-10,0-17.9-3-23.6-8.9c-5.7-5.9-8.6-14.3-8.6-25.2v-79.4h30.9v70.2c0,6.3,1.5,10.5,4.5,12.6
		c3,2.2,6.9,3.2,11.8,3.2c3.9,0,7.9-0.7,12-2.2c4.1-1.5,7.8-3.4,11-6v-77.9h31.1v112.2h-25.7l-5.4-11.5c-5,3.3-10.8,6.3-17.3,8.9
		C739.2,562.2,732.3,563.5,725.1,563.5z"/>
	<path d="M815.5,562.3V450.1h23.8l7.1,17.1c4-5.2,8.6-9.5,13.7-13.2c5.1-3.6,11.1-5.4,18.1-5.4c1.5,0,3.1,0.1,4.7,0.2
		c1.6,0.1,3.1,0.4,4.5,0.8v31.8c-2.1-0.3-4.3-0.5-6.6-0.7c-2.3-0.2-4.5-0.3-6.6-0.3c-4,0-7.7,0.5-11,1.4c-3.3,0.9-6.3,2.2-9,4
		c-2.7,1.7-5.3,4-7.8,6.8v69.8H815.5z"/>
	<path d="M949,563.3c-12.4,0-22.3-1.6-29.7-4.9c-7.4-3.3-12.7-9.1-16-17.4c-3.3-8.4-4.9-19.9-4.9-34.7c0-15.2,1.5-27,4.6-35.3
		c3.1-8.4,8.2-14.2,15.5-17.6c7.2-3.3,17.1-5,29.5-5c11.1,0,20.1,1.1,26.7,3.3c6.7,2.2,11.5,6.1,14.5,11.7c3,5.6,4.5,13.4,4.5,23.6
		c0,7.5-1.5,13.5-4.5,17.9c-3,4.4-7.2,7.5-12.6,9.4c-5.4,1.9-11.8,2.8-19.2,2.8h-28.2c0.3,5.7,1.1,10.3,2.6,13.7
		c1.5,3.4,4.2,5.8,8.1,7.3s9.7,2.2,17.2,2.2H990v18.2c-5.4,1.1-11.4,2.2-17.9,3.2C965.6,562.8,957.9,563.3,949,563.3z M928.8,498.7
		h25.5c4.2,0,7.2-0.8,9.2-2.5c1.9-1.7,2.9-4.7,2.9-9c0-4-0.6-7.3-1.9-9.7c-1.3-2.4-3.2-4.2-5.8-5.2c-2.6-1-6.2-1.6-10.7-1.6
		c-4.7,0-8.5,0.8-11.3,2.4c-2.8,1.6-4.8,4.4-6.1,8.5C929.4,485.7,928.8,491.4,928.8,498.7z"/>
</g>
<g>
	<polygon class="st0" points="110.5,495.9 110.5,568.2 55.3,583.8 55.3,533.5 0,516.5 0,448.4 55.3,428.7 55.3,479 	"/>
</g>
</svg>
